<svg xmlns="http://www.w3.org/2000/svg" viewBox="0 0 512 512">
  <defs>
    <linearGradient id="bg" x1="0" y1="0" x2="1" y2="1">
      <stop offset="0" stop-color="#157b2e"/>
      <stop offset="1" stop-color="#2faa3d"/>
    </linearGradient>
  </defs>
  <rect x="0" y="0" width="512" height="512" fill="url(#bg)"/>
  <rect x="24" y="24" width="464" height="464" rx="88" fill="url(#bg)"/>
  <path d="M156 120 h132 l68 68 v204 a20 20 0 0 1 -20 20 H156 a20 20 0 0 1 -20 -20 V140 a20 20 0 0 1 20 -20z" fill="#ffffff"/>
  <path d="M288 120 v48 a20 20 0 0 0 20 20 h48" fill="#e8f5e9"/>
  <g transform="translate(190,200)">
    <path d="M66 8a46 46 0 1 1-7 91" fill="none" stroke="#f2c300" stroke-width="18" stroke-linecap="round"/>
    <path d="M54 110 l18-18 l-26-2" fill="#f2c300"/>
  </g>
  <g transform="translate(176,314)">
    <path d="M0 14 h74" stroke="#0e5f22" stroke-width="18" stroke-linecap="round"/>
    <path d="M170 14 h-74" stroke="#0e5f22" stroke-width="18" stroke-linecap="round"/>
    <path d="M88 0 l20 20 l-20 20" fill="none" stroke="#0e5f22" stroke-width="18" stroke-linecap="round" stroke-linejoin="round"/>
    <path d="M82 40 l-20-20 l20-20" fill="none" stroke="#0e5f22" stroke-width="18" stroke-linecap="round" stroke-linejoin="round"/>
  </g>
</svg>
