<svg width="512" height="512" viewBox="0 0 512 512" xmlns="http://www.w3.org/2000/svg">
  <defs>
    <linearGradient id="bg" x1="0" y1="0" x2="1" y2="1">
      <stop offset="0" stop-color="#157b2e"/>
      <stop offset="1" stop-color="#2faa3d"/>
    </linearGradient>
    <filter id="softShadow" x="-20%" y="-20%" width="140%" height="140%">
      <feDropShadow dx="0" dy="8" stdDeviation="10" flood-color="#000" flood-opacity="0.2"/>
    </filter>
  </defs>

  <!-- Fondo al 100% (sin transparencia) -->
  <rect x="0" y="0" width="512" height="512" fill="url(#bg)"/>

  <!-- “Tarjeta” redondeada (opcional, mantiene el look) -->
  <rect x="24" y="24" width="464" height="464" rx="88" fill="url(#bg)"/>

  <!-- Documento -->
  <g filter="url(#softShadow)">
    <path d="M156 120 h132 l68 68 v204 a20 20 0 0 1 -20 20 H156 a20 20 0 0 1 -20 -20 V140 a20 20 0 0 1 20 -20z" fill="#ffffff"/>
    <path d="M288 120 v48 a20 20 0 0 0 20 20 h48" fill="#e8f5e9"/>
  </g>

  <!-- Ícono: Convertir -->
  <g transform="translate(190,200)">
    <path d="M66 8a46 46 0 1 1-7 91" fill="none" stroke="#f2c300" stroke-width="12" stroke-linecap="round"/>
    <path d="M54 110 l18-18 l-26-2" fill="#f2c300"/>
  </g>

  <!-- Ícono: Comprimir -->
  <g transform="translate(176,314)">
    <path d="M0 14 h74" stroke="#157b2e" stroke-width="12" stroke-linecap="round"/>
    <path d="M170 14 h-74" stroke="#157b2e" stroke-width="12" stroke-linecap="round"/>
    <path d="M88 0 l20 20 l-20 20" fill="none" stroke="#157b2e" stroke-width="12" stroke-linecap="round" stroke-linejoin="round"/>
    <path d="M82 40 l-20-20 l20-20" fill="none" stroke="#157b2e" stroke-width="12" stroke-linecap="round" stroke-linejoin="round"/>
  </g>
</svg>
